<svg id="Layer_1" data-name="Layer 1" xmlns="http://www.w3.org/2000/svg" viewBox="0 0 811.15 301.02"><defs><style>.cls-1{fill:#231f20;}</style></defs><path d="M382.7,271.89q-1.05,17.52-3,35.84h6.07q-2-18.83-3-35.84Z" transform="translate(-15.37 -143.43)"/><path d="M615.11,271.89q-1.05,17.52-3,35.84h6.07q-2-18.83-3-35.84Z" transform="translate(-15.37 -143.43)"/><path d="M715.86,268.67q-4.27,0-4.27,25.35,0,27.06,4.33,27.05c1.57,0,2.69-2,3.39-6s1-10.31,1-19q0-14.34-1-20.89C718.61,270.85,717.47,268.67,715.86,268.67Z" transform="translate(-15.37 -143.43)"/><path d="M15.37,143.43v301H826.52v-301Zm318.4,293.63H22.8V150.21h311ZM389,337l-1.49-14.1h-9.38L376.58,337h-9.05l10.37-84.39h10L398.23,337Zm30.09-5c-2.37,4.78-5.36,7.17-9,7.17q-3.72,0-7.38-3.79V315.76q4.21,5.31,7.09,5.31a3,3,0,0,0,2.64-2,12.27,12.27,0,0,0,1-5.28,14.45,14.45,0,0,0-.77-4.74,30.84,30.84,0,0,0-2.68-5.37,66.15,66.15,0,0,1-6.67-14.13A48.48,48.48,0,0,1,401.22,275q0-10.94,3.19-17.83t8.26-6.89q3.75,0,7.44,3.48v18.9Q416.17,268,413.7,268a2.89,2.89,0,0,0-2.6,1.74,10.06,10.06,0,0,0-1,4.77q0,5.31,4.43,11.95a56.34,56.34,0,0,1,5.34,11,46,46,0,0,1,2.71,16.47Q422.63,324.87,419.09,332Zm19.1,5h-8.88V252.61h8.88Zm25.05-5c-2.37,4.78-5.36,7.17-9,7.17q-3.72,0-7.38-3.79V315.76q4.22,5.31,7.09,5.31a3,3,0,0,0,2.64-2,12.27,12.27,0,0,0,1-5.28,14.19,14.19,0,0,0-.77-4.74,30.84,30.84,0,0,0-2.68-5.37,66.15,66.15,0,0,1-6.67-14.13A48.16,48.16,0,0,1,445.37,275q0-10.94,3.19-17.83t8.26-6.89q3.75,0,7.44,3.48v18.9q-3.94-4.68-6.41-4.68a2.89,2.89,0,0,0-2.6,1.74,10.06,10.06,0,0,0-.95,4.77q0,5.31,4.43,11.95a56.34,56.34,0,0,1,5.34,11,46,46,0,0,1,2.71,16.47Q466.78,324.87,463.24,332Zm28.15-60.15h-6.12V337h-9V271.89h-6.06V252.61h21.18ZM514.92,337h-18V252.61h18v18h-9.08v15.55h7.88v17.5h-7.88V319h9.14Zm35.8,0h-9.11l-11.05-47.91.24,10.49V337h-8.88V252.61h9l11.28,48.68-.32-9.11V252.61h8.88Zm28.94-65a8.37,8.37,0,0,0-4.8-1.83q-3.47,0-5.74,6.82t-2.29,17.39q0,11.37,2.3,18t6.14,6.61a7.78,7.78,0,0,0,4.39-1.9v20a9.16,9.16,0,0,1-5,2q-7.7,0-12.49-12.49t-4.79-32.84q0-18.9,4.83-31.19t12.22-12.3a9.11,9.11,0,0,1,5.27,1.65Zm14.94,65h-8.87V252.61h8.87Zm26.81,0-1.49-14.1h-9.38L609,337h-9l10.37-84.39h10L630.64,337Zm30.09-5q-3.54,7.17-9,7.17-3.74,0-7.39-3.79V315.76q4.21,5.31,7.09,5.31a2.94,2.94,0,0,0,2.64-2,12.26,12.26,0,0,0,1-5.28,14.2,14.2,0,0,0-.78-4.74,30.84,30.84,0,0,0-2.68-5.37,66.15,66.15,0,0,1-6.67-14.13A48.48,48.48,0,0,1,633.63,275q0-10.94,3.19-17.83t8.26-6.89q3.75,0,7.44,3.48v18.9q-3.94-4.68-6.41-4.68a2.87,2.87,0,0,0-2.59,1.74,9.93,9.93,0,0,0-1,4.77q0,5.31,4.43,11.95a55.77,55.77,0,0,1,5.34,11A46,46,0,0,1,655,313.93Q655,324.87,651.5,332Zm42.19-.89q-3.5,8.07-9.41,8.06c-2.2,0-5.09-1.26-8.64-3.79l1.14-16.18q4.25,3.66,6.36,3.66,2.64,0,4.07-3.72t1.44-10.69q0-5.94-1.89-9.16a6,6,0,0,0-5.41-3.23,10.6,10.6,0,0,0-4.1,1.14l2.84-44.75H696.7l-.17,16.94H686.45l-.85,12.83q5.63.38,8.6,7.55t3,19.63Q697.17,323.09,693.69,331.15Zm31.89-3.31q-3.36,11.37-9.6,11.37-5.91,0-9.42-10.65t-3.5-34.42q0-20.85,3.37-32.3t9.43-11.44H716q6.36,0,9.66,11.32T728.93,295Q728.93,316.45,725.58,327.84Zm29.41,0q-3.36,11.37-9.59,11.37-5.92,0-9.42-10.65t-3.5-34.42q0-20.85,3.37-32.3t9.43-11.44h.12q6.35,0,9.65,11.32t3.3,33.31Q758.35,316.45,755,327.84Zm29.41,0q-3.35,11.37-9.59,11.37-5.92,0-9.42-10.65t-3.5-34.42q0-20.85,3.37-32.3t9.43-11.44h.12q6.36,0,9.65,11.32t3.3,33.31Q787.76,316.45,784.4,327.84Z" transform="translate(-15.37 -143.43)"/><path d="M745.28,268.67Q741,268.67,741,294q0,27.06,4.34,27.05,2.34,0,3.38-6t1-19q0-14.34-1-20.89T745.28,268.67Z" transform="translate(-15.37 -143.43)"/><path d="M774.69,268.67q-4.28,0-4.27,25.35,0,27.06,4.33,27.05,2.34,0,3.39-6t1-19q0-14.34-1-20.89T774.69,268.67Z" transform="translate(-15.37 -143.43)"/><path class="cls-1" d="M230.22,364.34,181.15,193.39q-2.35-7.75-11.55-7.76c-6.32,0-10.47,3.05-11.38,13.28l12.27,47.83L190,313.07H122.35l-14.74,50.1a15.41,15.41,0,0,0-.73,4.54,12.37,12.37,0,0,0,3.54,8.93,11.91,11.91,0,0,0,9,3.67,12.69,12.69,0,0,0,7.07-2.12c2.15-1.4,3.38-2.89,3.68-4.44L140.86,338h56.36l9.72,33.4q2.64,8.94,12.3,8.94a11,11,0,0,0,8-3.59,12,12,0,0,0,3.52-8.72A12.47,12.47,0,0,0,230.22,364.34Z" transform="translate(-15.37 -143.43)"/><path class="cls-1" d="M164.82,244.51l-17.43,60.3a4.21,4.21,0,0,1-4,3.1H129.16a4.32,4.32,0,0,1-4-5.57L150,214.68a4.16,4.16,0,0,1,8.09.14l6.76,27.36A4.49,4.49,0,0,1,164.82,244.51Z" transform="translate(-15.37 -143.43)"/></svg>